P3
73 43
255
 250 250 250  250 250 250  250 250 250  250 250 250  250 250 250  250 250 250  250 250 250  250 250 250  250 250 250  250 250 250  250 250 250  250 250 250  250 250 250  250 250 250  250 250 250  250 250 250  250 250 250  250 250 250  250 250 250  250 250 250  250 250 250  250 250 250  250 250 250  250 250 250  250 250 250  250 250 250  250 250 250  250 250 250  250 250 250  250 250 250  250 250 250  250 250 250  250 250 250  250 250 250  250 250 250  250 250 250  250 250 250  250 250 250  250 250 250  250 250 250  250 250 250  250 250 250  250 250 250  250 250 250  250 250 250  250 250 250  250 250 250  250 250 250  250 250 250  250 250 250  250 250 250  250 250 250  250 250 250  250 250 250  250 250 250  250 250 250  250 250 250  250 250 250  250 250 250  250 250 250  250 250 250  250 250 250  250 250 250  250 250 250  250 250 250  250 250 250  250 250 250  250 250 250  250 250 250  250 250 250  250 250 250  250 250 250  250 250 250  250 250 250  250 250 250  250 250 250  250 250 250  250 250 250  250 250 250  250 250 250  250 250 250  250 250 250  250 250 250  250 250 250  250 250 250  250 250 250  250 250 250  250 250 250  250 250 250  250 250 250  250 250 250  250 250 250  250 250 250  250 250 250  250 250 250  250 250 250  250 250 250  250 250 250  250 250 250  250 250 250  250 250 250  250 250 250  250 250 250  250 250 250  250 250 250  250 250 250  250 250 250  250 250 250  250 250 250  250 250 250  250 250 250  250 250 250  250 250 250  250 250 250  250 250 250  250 250 250  250 250 250  250 250 250  250 250 250  250 250 250  250 250 250  250 250 250  250 250 250  250 250 250  250 250 250  250 250 250  250 250 250  250 250 250  250 250 250  250 250 250  250 250 250  250 250 250  250 250 250  250 250 250  250 250 250  250 250 250  250 250 250  250 250 250  250 250 250  250 250 250  250 250 250  250 250 250  250 250 250  250 250 250  250 250 250  250 250 250  250 250 250  250 250 250  250 250 250  250 250 250  250 250 250  250 250 250  250 250 250  250 250 250  100 100 100  100 100 100  100 100 100  100 100 100  100 100 100  100 100 100  100 100 100  100 100 100  100 100 100  100 100 100  100 100 100  100 100 100  100 100 100  100 100 100  100 100 100  100 100 100  100 100 100  100 100 100  100 100 100  100 100 100  100 100 100  100 100 100  100 100 100  100 100 100  100 100 100  100 100 100  100 100 100  100 100 100  100 100 100  100 100 100  100 100 100  100 100 100  100 100 100  100 100 100  100 100 100  100 100 100  100 100 100  100 100 100  100 100 100  100 100 100  100 100 100  100 100 100  100 100 100  100 100 100  100 100 100  100 100 100  100 100 100  100 100 100  100 100 100  100 100 100  100 100 100  100 100 100  100 100 100  100 100 100  100 100 100  100 100 100  100 100 100  100 100 100  100 100 100  250 250 250  250 250 250  250 250 250  250 250 250  250 250 250  250 250 250  250 250 250  250 250 250  250 250 250  250 250 250  100 100 100  100 100 100  100 100 100  100 100 100  100 100 100  100 100 100  100 100 100  100 100 100  100 100 100  100 100 100  100 100 100  100 100 100  100 100 100  100 100 100  100 100 100  100 100 100  100 100 100  100 100 100  100 100 100  100 100 100  100 100 100  100 100 100  100 100 100  100 100 100  100 100 100  100 100 100  100 100 100  100 100 100  100 100 100  100 100 100  100 100 100  100 100 100  100 100 100  100 100 100  100 100 100  100 100 100  100 100 100  100 100 100  100 100 100  100 100 100  100 100 100  100 100 100  100 100 100  100 100 100  100 100 100  100 100 100  100 100 100  100 100 100  100 100 100  100 100 100  100 100 100  100 100 100  100 100 100  100 100 100  100 100 100  100 100 100  100 100 100  100 100 100  100 100 100  100 100 100  100 100 100  100 100 100  100 100 100  100 100 100  100 100 100  100 100 100  100 100 100  250 250 250  250 250 250  250 250 250  250 250 250  250 250 250  100 100 100  100 100 100  100 100 100  100 100 100  100 100 100  100 100 100  100 100 100  100 100 100  100 100 100  100 100 100  100 100 100  100 100 100  100 100 100  100 100 100  100 100 100  100 100 100  100 100 100  100 100 100  100 100 100  100 100 100  100 100 100  100 100 100  100 100 100  100 100 100  100 100 100  100 100 100  100 100 100  100 100 100  100 100 100  100 100 100  100 100 100  100 100 100  100 100 100  100 100 100  100 100 100  100 100 100  100 100 100  100 100 100  100 100 100  100 100 100  100 100 100  100 100 100  100 100 100  100 100 100  100 100 100  100 100 100  100 100 100  100 100 100  100 100 100  100 100 100  100 100 100  100 100 100  100 100 100  100 100 100  100 100 100  100 100 100  100 100 100  100 100 100  100 100 100  100 100 100  100 100 100  100 100 100  100 100 100  100 100 100  100 100 100  100 100 100  0 250 0  100 100 100  250 250 250  250 250 250  250 250 250  250 250 250  250 250 250  100 100 100  0 250 0 125 125 0  100 100 100  100 100 100  100 100 100  100 100 100  100 100 100  100 100 100  100 100 100  100 100 100  100 100 100  100 100 100  100 100 100  100 100 100  100 100 100  100 100 100  100 100 100  100 100 100  100 100 100  100 100 100  100 100 100  100 100 100  100 100 100  100 100 100  100 100 100  100 100 100  100 100 100  100 100 100  100 100 100  100 100 100  100 100 100  100 100 100  100 100 100  100 100 100  100 100 100  100 100 100  100 100 100  100 100 100  100 100 100  100 100 100  100 100 100  100 100 100  100 100 100  100 100 100  100 100 100  100 100 100  100 100 100  100 100 100  100 100 100  100 100 100  100 100 100  100 100 100  100 100 100  100 100 100  100 100 100  100 100 100  100 100 100  100 100 100  100 100 100  100 100 100  100 100 100  100 100 100  100 100 100  100 100 100 142 142 0  100 100 100  100 100 100  250 250 250  250 250 250  250 250 250  250 250 250  250 250 250  100 100 100  100 100 100  100 100 100 128 128 0  100 100 100  100 100 100  100 100 100  100 100 100  100 100 100  100 100 100  100 100 100  100 100 100  100 100 100  100 100 100  100 100 100  100 100 100  100 100 100  100 100 100  100 100 100  100 100 100  100 100 100  100 100 100  100 100 100  100 100 100  100 100 100  100 100 100  100 100 100  100 100 100  100 100 100  100 100 100  100 100 100  100 100 100  100 100 100  100 100 100  100 100 100  100 100 100  100 100 100  100 100 100  100 100 100  100 100 100  100 100 100  100 100 100  100 100 100  100 100 100  100 100 100  100 100 100  100 100 100  100 100 100  100 100 100  100 100 100  100 100 100  100 100 100  100 100 100  100 100 100  100 100 100  100 100 100  100 100 100  100 100 100  100 100 100  100 100 100  100 100 100  100 100 100  100 100 100  100 100 100 141 141 0  100 100 100  100 100 100  100 100 100  250 250 250  250 250 250  250 250 250  250 250 250  100 100 100  100 100 100  100 100 100  100 100 100  100 100 100 124 124 0  100 100 100  100 100 100  100 100 100  100 100 100  100 100 100  100 100 100  100 100 100  100 100 100  100 100 100  100 100 100  100 100 100  100 100 100  100 100 100  100 100 100  100 100 100  100 100 100  100 100 100  100 100 100  100 100 100  100 100 100  100 100 100  100 100 100  100 100 100  100 100 100  100 100 100  100 100 100  100 100 100  100 100 100  100 100 100  100 100 100  100 100 100  100 100 100  100 100 100  100 100 100  100 100 100  100 100 100  100 100 100  100 100 100  100 100 100  100 100 100  100 100 100  100 100 100  100 100 100  100 100 100  100 100 100  100 100 100  100 100 100  100 100 100  100 100 100  100 100 100  100 100 100  100 100 100  100 100 100  100 100 100  100 100 100  100 100 100  100 100 100  100 100 100 142 142 0  100 100 100  100 100 100  100 100 100  100 100 100  100 100 100  250 250 250  250 250 250  250 250 250  100 100 100  100 100 100  100 100 100  100 100 100  100 100 100  100 100 100 141 141 0  100 100 100  100 100 100  100 100 100  100 100 100  100 100 100  100 100 100  100 100 100  100 100 100  100 100 100  100 100 100  100 100 100  100 100 100  100 100 100  100 100 100  100 100 100  100 100 100  100 100 100  100 100 100  100 100 100  100 100 100  100 100 100  100 100 100  100 100 100  100 100 100  100 100 100  100 100 100  100 100 100  100 100 100  100 100 100  100 100 100  100 100 100  100 100 100  100 100 100  100 100 100  100 100 100  100 100 100  100 100 100  100 100 100  100 100 100  100 100 100  100 100 100  100 100 100  100 100 100  100 100 100  100 100 100  100 100 100  100 100 100  100 100 100  100 100 100  100 100 100  100 100 100  100 100 100  100 100 100  100 100 100  100 100 100  100 100 100 142 142 0  100 100 100  100 100 100  100 100 100  100 100 100  100 100 100  100 100 100  250 250 250  250 250 250  250 250 250  100 100 100  100 100 100  100 100 100  100 100 100  100 100 100  100 100 100  100 100 100 142 142 0  100 100 100  100 100 100  100 100 100  100 100 100  100 100 100  100 100 100  100 100 100  100 100 100  100 100 100  100 100 100  100 100 100  100 100 100  100 100 100  100 100 100  100 100 100  100 100 100  100 100 100  100 100 100  100 100 100  100 100 100  100 100 100  100 100 100  100 100 100  100 100 100  100 100 100  100 100 100  100 100 100  100 100 100  100 100 100  100 100 100  100 100 100  100 100 100  100 100 100  100 100 100  100 100 100  100 100 100  100 100 100  100 100 100  100 100 100  100 100 100  100 100 100  100 100 100  100 100 100  100 100 100  100 100 100  100 100 100  100 100 100  100 100 100  100 100 100  100 100 100  100 100 100  100 100 100  100 100 100  100 100 100 142 142 0  100 100 100  100 100 100  100 100 100  100 100 100  100 100 100  100 100 100  100 100 100  250 250 250  250 250 250  250 250 250  100 100 100  100 100 100  100 100 100  100 100 100  100 100 100  100 100 100  100 100 100  100 100 100 142 142 0  100 100 100  100 100 100  100 100 100  100 100 100  100 100 100  100 100 100  100 100 100  100 100 100  100 100 100  100 100 100  100 100 100  100 100 100  100 100 100  100 100 100  100 100 100  100 100 100  100 100 100  100 100 100  100 100 100  100 100 100  100 100 100  100 100 100  100 100 100  100 100 100  100 100 100  100 100 100  100 100 100  100 100 100  100 100 100  100 100 100  100 100 100  100 100 100  100 100 100  100 100 100  100 100 100  100 100 100  100 100 100  100 100 100  100 100 100  100 100 100  100 100 100  100 100 100  100 100 100  100 100 100  100 100 100  100 100 100  100 100 100  100 100 100  100 100 100  100 100 100  100 100 100  100 100 100 142 142 0  100 100 100  100 100 100  100 100 100  100 100 100  100 100 100  100 100 100  100 100 100  100 100 100  250 250 250  250 250 250  250 250 250  100 100 100  100 100 100  100 100 100  100 100 100  100 100 100  100 100 100  100 100 100  100 100 100  100 100 100 142 142 0  100 100 100  100 100 100  100 100 100  100 100 100  100 100 100  100 100 100  100 100 100  100 100 100  100 100 100  100 100 100  100 100 100  100 100 100  100 100 100  100 100 100  100 100 100  100 100 100  100 100 100  100 100 100  100 100 100  100 100 100  100 100 100  100 100 100  100 100 100  100 100 100  100 100 100  100 100 100  100 100 100  100 100 100  100 100 100  100 100 100  100 100 100  100 100 100  100 100 100  100 100 100  100 100 100  100 100 100  100 100 100  100 100 100  100 100 100  100 100 100  100 100 100  100 100 100  100 100 100  100 100 100  100 100 100  100 100 100  100 100 100  100 100 100  100 100 100  100 100 100 142 142 0  100 100 100  100 100 100  100 100 100  100 100 100  100 100 100  100 100 100  100 100 100  100 100 100  100 100 100  250 250 250  250 250 250  250 250 250  100 100 100  100 100 100  100 100 100  100 100 100  100 100 100  100 100 100  100 100 100  100 100 100  100 100 100  100 100 100 142 142 0  100 100 100  100 100 100  100 100 100  100 100 100  100 100 100  100 100 100  100 100 100  100 100 100  100 100 100  100 100 100  100 100 100  100 100 100  100 100 100  100 100 100  100 100 100  100 100 100  100 100 100  100 100 100  100 100 100  100 100 100  100 100 100  100 100 100  100 100 100  100 100 100  100 100 100  100 100 100  100 100 100  100 100 100  100 100 100  100 100 100  100 100 100  100 100 100  100 100 100  100 100 100  100 100 100  100 100 100  100 100 100  100 100 100  100 100 100  100 100 100  100 100 100  100 100 100  100 100 100  100 100 100  100 100 100  100 100 100  100 100 100  100 100 100 142 142 0  100 100 100  100 100 100  100 100 100  100 100 100  100 100 100  100 100 100  100 100 100  100 100 100  100 100 100  100 100 100  250 250 250  250 250 250  250 250 250  100 100 100  100 100 100  100 100 100  100 100 100  100 100 100  100 100 100  100 100 100  100 100 100  100 100 100  100 100 100  100 100 100 142 142 0  100 100 100  100 100 100  100 100 100  100 100 100  100 100 100  100 100 100  100 100 100  100 100 100  100 100 100  100 100 100  100 100 100  100 100 100  100 100 100  100 100 100  100 100 100  100 100 100  100 100 100  100 100 100  100 100 100  100 100 100  100 100 100  100 100 100  100 100 100  100 100 100  100 100 100  100 100 100  100 100 100  100 100 100  100 100 100  100 100 100  100 100 100  100 100 100  100 100 100  100 100 100  100 100 100  100 100 100  100 100 100  100 100 100  100 100 100  100 100 100  100 100 100  100 100 100  100 100 100  100 100 100  100 100 100  100 100 100 142 142 0  100 100 100  100 100 100  100 100 100  100 100 100  100 100 100  100 100 100  100 100 100  100 100 100  100 100 100  100 100 100  100 100 100  250 250 250  250 250 250  250 250 250  100 100 100  100 100 100  100 100 100  100 100 100  100 100 100  100 100 100  100 100 100  100 100 100  100 100 100  100 100 100  100 100 100  100 100 100 142 142 0  100 100 100  100 100 100  100 100 100  100 100 100  100 100 100  100 100 100  100 100 100  100 100 100  100 100 100  100 100 100  100 100 100  100 100 100  100 100 100  100 100 100  100 100 100  100 100 100  100 100 100  100 100 100  100 100 100  100 100 100  100 100 100  100 100 100  100 100 100  100 100 100  100 100 100  100 100 100  100 100 100  100 100 100  100 100 100  100 100 100  100 100 100  100 100 100  100 100 100  100 100 100  100 100 100  100 100 100  100 100 100  100 100 100  100 100 100  100 100 100  100 100 100  100 100 100  100 100 100  100 100 100 142 142 0  100 100 100  100 100 100  100 100 100  100 100 100  100 100 100  100 100 100  100 100 100  100 100 100  100 100 100  100 100 100  100 100 100  100 100 100  250 250 250  250 250 250  250 250 250  100 100 100  100 100 100  100 100 100  100 100 100  100 100 100  100 100 100  100 100 100  100 100 100  100 100 100  100 100 100  100 100 100  100 100 100  100 100 100 142 142 0  100 100 100  100 100 100  100 100 100  100 100 100  100 100 100  100 100 100  100 100 100  100 100 100  100 100 100  100 100 100  100 100 100  100 100 100  100 100 100  100 100 100  100 100 100  100 100 100  100 100 100  100 100 100  100 100 100  100 100 100  100 100 100  100 100 100  100 100 100  100 100 100  100 100 100  100 100 100  100 100 100  100 100 100  100 100 100  100 100 100  100 100 100  100 100 100  100 100 100  100 100 100  100 100 100  100 100 100  100 100 100  100 100 100  100 100 100  100 100 100  100 100 100  100 100 100 142 142 0  100 100 100  100 100 100  100 100 100  100 100 100  100 100 100  100 100 100  100 100 100  100 100 100  100 100 100  100 100 100  100 100 100  100 100 100  100 100 100  250 250 250  250 250 250  250 250 250  100 100 100  100 100 100  100 100 100  100 100 100  100 100 100  100 100 100  100 100 100  100 100 100  100 100 100  100 100 100  100 100 100  100 100 100  100 100 100  100 100 100 142 142 0  100 100 100  100 100 100  100 100 100  100 100 100  100 100 100  100 100 100  100 100 100  100 100 100  100 100 100  100 100 100  100 100 100  100 100 100  100 100 100  100 100 100  100 100 100  100 100 100  100 100 100  100 100 100  100 100 100  100 100 100  100 100 100  100 100 100  100 100 100  100 100 100  100 100 100  100 100 100  100 100 100  100 100 100  100 100 100  100 100 100  100 100 100  100 100 100  100 100 100  100 100 100  100 100 100  100 100 100  100 100 100  100 100 100  100 100 100  100 100 100 142 142 0  100 100 100  100 100 100  100 100 100  100 100 100  100 100 100  100 100 100  100 100 100  100 100 100  100 100 100  100 100 100  100 100 100  100 100 100  100 100 100  100 100 100  250 250 250  250 250 250  250 250 250  100 100 100  100 100 100  100 100 100  100 100 100  100 100 100  100 100 100  100 100 100  100 100 100  100 100 100  100 100 100  100 100 100  100 100 100  100 100 100  100 100 100  100 100 100 142 142 0  100 100 100  100 100 100  100 100 100  100 100 100  100 100 100  100 100 100  100 100 100  100 100 100  100 100 100  100 100 100  100 100 100  100 100 100  100 100 100  100 100 100  100 100 100  100 100 100  100 100 100  100 100 100  100 100 100  100 100 100  100 100 100  100 100 100  100 100 100  100 100 100  100 100 100  100 100 100  100 100 100  100 100 100  100 100 100  100 100 100  100 100 100  100 100 100  100 100 100  100 100 100  100 100 100  100 100 100  100 100 100  100 100 100 142 142 0  100 100 100  100 100 100  100 100 100  100 100 100  100 100 100  100 100 100  100 100 100  100 100 100  100 100 100  100 100 100  100 100 100  100 100 100  100 100 100  100 100 100  100 100 100  250 250 250  250 250 250  250 250 250  100 100 100  100 100 100  100 100 100  100 100 100  100 100 100  100 100 100  100 100 100  100 100 100  100 100 100  100 100 100  100 100 100  100 100 100  100 100 100  100 100 100  100 100 100  100 100 100 142 142 0  100 100 100  100 100 100  100 100 100  100 100 100  100 100 100  100 100 100  100 100 100  100 100 100  100 100 100  100 100 100  100 100 100  100 100 100  100 100 100  100 100 100  100 100 100  100 100 100  100 100 100  100 100 100  100 100 100  100 100 100  100 100 100  100 100 100  100 100 100  100 100 100  100 100 100  100 100 100  100 100 100  100 100 100  100 100 100  100 100 100  100 100 100  100 100 100  100 100 100  100 100 100  100 100 100  100 100 100 142 142 0  100 100 100  100 100 100  100 100 100  100 100 100  100 100 100  100 100 100  100 100 100  100 100 100  100 100 100  100 100 100  100 100 100  100 100 100  100 100 100  100 100 100  100 100 100  100 100 100  250 250 250  250 250 250  250 250 250  100 100 100  100 100 100  100 100 100  100 100 100  100 100 100  100 100 100  100 100 100  100 100 100  100 100 100  100 100 100  100 100 100  100 100 100  100 100 100  100 100 100  100 100 100  100 100 100  100 100 100 142 142 0  100 100 100  100 100 100  100 100 100  100 100 100  100 100 100  100 100 100  100 100 100  100 100 100  100 100 100  100 100 100  100 100 100  100 100 100  100 100 100  100 100 100  100 100 100  100 100 100  100 100 100  100 100 100  100 100 100  100 100 100  100 100 100  100 100 100  100 100 100  100 100 100  100 100 100  100 100 100  100 100 100  100 100 100  100 100 100  100 100 100  100 100 100  100 100 100  100 100 100  100 100 100 142 142 0  100 100 100  100 100 100  100 100 100  100 100 100  100 100 100  100 100 100  100 100 100  100 100 100  100 100 100  100 100 100  100 100 100  100 100 100  100 100 100  100 100 100  100 100 100  100 100 100  100 100 100  250 250 250  250 250 250  250 250 250  100 100 100  100 100 100  100 100 100  100 100 100  100 100 100  100 100 100  100 100 100  100 100 100  100 100 100  100 100 100  100 100 100  100 100 100  100 100 100  100 100 100  100 100 100  100 100 100  100 100 100  100 100 100 142 142 0  100 100 100  100 100 100  100 100 100  100 100 100  100 100 100  100 100 100  100 100 100  100 100 100  100 100 100  100 100 100  100 100 100  100 100 100  100 100 100  100 100 100  100 100 100  100 100 100  100 100 100  100 100 100  100 100 100  100 100 100  100 100 100  100 100 100  100 100 100  100 100 100  100 100 100  100 100 100  100 100 100  100 100 100  100 100 100  100 100 100  100 100 100  100 100 100 142 142 0  100 100 100  100 100 100  100 100 100  100 100 100  100 100 100  100 100 100  100 100 100  100 100 100  100 100 100  100 100 100  100 100 100  100 100 100  100 100 100  100 100 100  100 100 100  100 100 100  100 100 100  100 100 100  250 250 250  250 250 250  250 250 250  100 100 100  100 100 100  100 100 100  100 100 100  100 100 100  100 100 100  100 100 100  100 100 100  100 100 100  100 100 100  100 100 100  100 100 100  100 100 100  100 100 100  100 100 100  100 100 100  100 100 100  100 100 100  100 100 100 218 218 0  100 100 100 193 193 0 193 193 0 193 193 0 193 193 0 193 193 0 193 193 0 193 193 0 193 193 0 193 193 0 193 193 0 193 193 0 193 193 0 193 193 0 193 193 0 193 193 0 193 193 0 193 193 0 193 193 0 193 193 0 193 193 0 193 193 0 193 193 0 193 193 0 193 193 0 193 193 0 193 193 0 193 193 0 193 193 0  100 100 100 218 218 0  100 100 100  100 100 100  100 100 100  100 100 100  100 100 100  100 100 100  100 100 100  100 100 100  100 100 100  100 100 100  100 100 100  100 100 100  100 100 100  100 100 100  100 100 100  100 100 100  100 100 100  100 100 100  100 100 100  250 250 250  250 250 250  250 250 250  100 100 100  100 100 100  100 100 100  100 100 100  100 100 100  100 100 100  100 100 100  100 100 100  100 100 100  100 100 100  100 100 100  100 100 100  100 100 100  100 100 100  100 100 100  100 100 100  100 100 100  100 100 100  100 100 100  250 0 0 216 216 0  100 100 100  100 100 100  100 100 100  100 100 100  100 100 100  100 100 100  100 100 100  100 100 100  100 100 100  100 100 100  100 100 100  100 100 100  100 100 100  100 100 100  100 100 100  100 100 100  100 100 100  100 100 100  100 100 100  100 100 100  100 100 100  100 100 100  100 100 100  100 100 100  100 100 100  100 100 100  100 100 100  100 100 100 216 216 0  250 0 0  100 100 100  100 100 100  100 100 100  100 100 100  100 100 100  100 100 100  100 100 100  100 100 100  100 100 100  100 100 100  100 100 100  100 100 100  100 100 100  100 100 100  100 100 100  100 100 100  100 100 100  100 100 100  100 100 100  250 250 250  250 250 250  250 250 250  100 100 100  100 100 100  100 100 100  100 100 100  100 100 100  100 100 100  100 100 100  100 100 100  100 100 100  100 100 100  100 100 100  100 100 100  100 100 100  100 100 100  100 100 100  100 100 100  100 100 100  100 100 100 142 142 0  100 100 100  100 100 100  100 100 100  100 100 100  100 100 100  100 100 100  100 100 100  100 100 100  100 100 100  100 100 100  100 100 100  100 100 100  100 100 100  100 100 100  100 100 100  100 100 100  100 100 100  100 100 100  100 100 100  100 100 100  100 100 100  100 100 100  100 100 100  100 100 100  100 100 100  100 100 100  100 100 100  100 100 100  100 100 100  100 100 100  100 100 100  100 100 100 142 142 0  100 100 100  100 100 100  100 100 100  100 100 100  100 100 100  100 100 100  100 100 100  100 100 100  100 100 100  100 100 100  100 100 100  100 100 100  100 100 100  100 100 100  100 100 100  100 100 100  100 100 100  100 100 100  250 250 250  250 250 250  250 250 250  100 100 100  100 100 100  100 100 100  100 100 100  100 100 100  100 100 100  100 100 100  100 100 100  100 100 100  100 100 100  100 100 100  100 100 100  100 100 100  100 100 100  100 100 100  100 100 100  100 100 100 142 142 0  100 100 100  100 100 100  100 100 100  100 100 100  100 100 100  100 100 100  100 100 100  100 100 100  100 100 100  100 100 100  100 100 100  100 100 100  100 100 100  100 100 100  100 100 100  100 100 100  100 100 100  100 100 100  100 100 100  100 100 100  100 100 100  100 100 100  100 100 100  100 100 100  100 100 100  100 100 100  100 100 100  100 100 100  100 100 100  100 100 100  100 100 100  100 100 100  100 100 100  100 100 100 142 142 0  100 100 100  100 100 100  100 100 100  100 100 100  100 100 100  100 100 100  100 100 100  100 100 100  100 100 100  100 100 100  100 100 100  100 100 100  100 100 100  100 100 100  100 100 100  100 100 100  100 100 100  250 250 250  250 250 250  250 250 250  100 100 100  100 100 100  100 100 100  100 100 100  100 100 100  100 100 100  100 100 100  100 100 100  100 100 100  100 100 100  100 100 100  100 100 100  100 100 100  100 100 100  100 100 100  100 100 100 142 142 0  100 100 100  100 100 100  100 100 100  100 100 100  100 100 100  100 100 100  100 100 100  100 100 100  100 100 100  100 100 100  100 100 100  100 100 100  100 100 100  100 100 100  100 100 100  100 100 100  100 100 100  100 100 100  100 100 100  100 100 100  100 100 100  100 100 100  100 100 100  100 100 100  100 100 100  100 100 100  100 100 100  100 100 100  100 100 100  100 100 100  100 100 100  100 100 100  100 100 100  100 100 100  100 100 100  100 100 100 142 142 0  100 100 100  100 100 100  100 100 100  100 100 100  100 100 100  100 100 100  100 100 100  100 100 100  100 100 100  100 100 100  100 100 100  100 100 100  100 100 100  100 100 100  100 100 100  100 100 100  250 250 250  250 250 250  250 250 250  100 100 100  100 100 100  100 100 100  100 100 100  100 100 100  100 100 100  100 100 100  100 100 100  100 100 100  100 100 100  100 100 100  100 100 100  100 100 100  100 100 100  100 100 100 142 142 0  100 100 100  100 100 100  100 100 100  100 100 100  100 100 100  100 100 100  100 100 100  100 100 100  100 100 100  100 100 100  100 100 100  100 100 100  100 100 100  100 100 100  100 100 100  100 100 100  100 100 100  100 100 100  100 100 100  100 100 100  100 100 100  100 100 100  100 100 100  100 100 100  100 100 100  100 100 100  100 100 100  100 100 100  100 100 100  100 100 100  100 100 100  100 100 100  100 100 100  100 100 100  100 100 100  100 100 100  100 100 100  100 100 100 142 142 0  100 100 100  100 100 100  100 100 100  100 100 100  100 100 100  100 100 100  100 100 100  100 100 100  100 100 100  100 100 100  100 100 100  100 100 100  100 100 100  100 100 100  100 100 100  250 250 250  250 250 250  250 250 250  100 100 100  100 100 100  100 100 100  100 100 100  100 100 100  100 100 100  100 100 100  100 100 100  100 100 100  100 100 100  100 100 100  100 100 100  100 100 100  100 100 100 142 142 0  100 100 100  100 100 100  100 100 100  100 100 100  100 100 100  100 100 100  100 100 100  100 100 100  100 100 100  100 100 100  100 100 100  100 100 100  100 100 100  100 100 100  100 100 100  100 100 100  100 100 100  100 100 100  100 100 100  100 100 100  100 100 100  100 100 100  100 100 100  100 100 100  100 100 100  100 100 100  100 100 100  100 100 100  100 100 100  100 100 100  100 100 100  100 100 100  100 100 100  100 100 100  100 100 100  100 100 100  100 100 100  100 100 100  100 100 100  100 100 100 142 142 0  100 100 100  100 100 100  100 100 100  100 100 100  100 100 100  100 100 100  100 100 100  100 100 100  100 100 100  100 100 100  100 100 100  100 100 100  100 100 100  100 100 100  250 250 250  250 250 250  250 250 250  100 100 100  100 100 100  100 100 100  100 100 100  100 100 100  100 100 100  100 100 100  100 100 100  100 100 100  100 100 100  100 100 100  100 100 100  100 100 100 142 142 0  100 100 100  100 100 100  100 100 100  100 100 100  100 100 100  100 100 100  100 100 100  100 100 100  100 100 100  100 100 100  100 100 100  100 100 100  100 100 100  100 100 100  100 100 100  100 100 100  100 100 100  100 100 100  100 100 100  100 100 100  100 100 100  100 100 100  100 100 100  100 100 100  100 100 100  100 100 100  100 100 100  100 100 100  100 100 100  100 100 100  100 100 100  100 100 100  100 100 100  100 100 100  100 100 100  100 100 100  100 100 100  100 100 100  100 100 100  100 100 100  100 100 100  100 100 100 142 142 0  100 100 100  100 100 100  100 100 100  100 100 100  100 100 100  100 100 100  100 100 100  100 100 100  100 100 100  100 100 100  100 100 100  100 100 100  100 100 100  250 250 250  250 250 250  250 250 250  100 100 100  100 100 100  100 100 100  100 100 100  100 100 100  100 100 100  100 100 100  100 100 100  100 100 100  100 100 100  100 100 100  100 100 100 142 142 0  100 100 100  100 100 100  100 100 100  100 100 100  100 100 100  100 100 100  100 100 100  100 100 100  100 100 100  100 100 100  100 100 100  100 100 100  100 100 100  100 100 100  100 100 100  100 100 100  100 100 100  100 100 100  100 100 100  100 100 100  100 100 100  100 100 100  100 100 100  100 100 100  100 100 100  100 100 100  100 100 100  100 100 100  100 100 100  100 100 100  100 100 100  100 100 100  100 100 100  100 100 100  100 100 100  100 100 100  100 100 100  100 100 100  100 100 100  100 100 100  100 100 100  100 100 100  100 100 100  100 100 100 142 142 0  100 100 100  100 100 100  100 100 100  100 100 100  100 100 100  100 100 100  100 100 100  100 100 100  100 100 100  100 100 100  100 100 100  100 100 100  250 250 250  250 250 250  250 250 250  100 100 100  100 100 100  100 100 100  100 100 100  100 100 100  100 100 100  100 100 100  100 100 100  100 100 100  100 100 100  100 100 100 142 142 0  100 100 100  100 100 100  100 100 100  100 100 100  100 100 100  100 100 100  100 100 100  100 100 100  100 100 100  100 100 100  100 100 100  100 100 100  100 100 100  100 100 100  100 100 100  100 100 100  100 100 100  100 100 100  100 100 100  100 100 100  100 100 100  100 100 100  100 100 100  100 100 100  100 100 100  100 100 100  100 100 100  100 100 100  100 100 100  100 100 100  100 100 100  100 100 100  100 100 100  100 100 100  100 100 100  100 100 100  100 100 100  100 100 100  100 100 100  100 100 100  100 100 100  100 100 100  100 100 100  100 100 100  100 100 100  100 100 100 142 142 0  100 100 100  100 100 100  100 100 100  100 100 100  100 100 100  100 100 100  100 100 100  100 100 100  100 100 100  100 100 100  100 100 100  250 250 250  250 250 250  250 250 250  100 100 100  100 100 100  100 100 100  100 100 100  100 100 100  100 100 100  100 100 100  100 100 100  100 100 100  100 100 100 142 142 0  100 100 100  100 100 100  100 100 100  100 100 100  100 100 100  100 100 100  100 100 100  100 100 100  100 100 100  100 100 100  100 100 100  100 100 100  100 100 100  100 100 100  100 100 100  100 100 100  100 100 100  100 100 100  100 100 100  100 100 100  100 100 100  100 100 100  100 100 100  100 100 100  100 100 100  100 100 100  100 100 100  100 100 100  100 100 100  100 100 100  100 100 100  100 100 100  100 100 100  100 100 100  100 100 100  100 100 100  100 100 100  100 100 100  100 100 100  100 100 100  100 100 100  100 100 100  100 100 100  100 100 100  100 100 100  100 100 100  100 100 100  100 100 100 142 142 0  100 100 100  100 100 100  100 100 100  100 100 100  100 100 100  100 100 100  100 100 100  100 100 100  100 100 100  100 100 100  250 250 250  250 250 250  250 250 250  100 100 100  100 100 100  100 100 100  100 100 100  100 100 100  100 100 100  100 100 100  100 100 100  100 100 100 142 142 0  100 100 100  100 100 100  100 100 100  100 100 100  100 100 100  100 100 100  100 100 100  100 100 100  100 100 100  100 100 100  100 100 100  100 100 100  100 100 100  100 100 100  100 100 100  100 100 100  100 100 100  100 100 100  100 100 100  100 100 100  100 100 100  100 100 100  100 100 100  100 100 100  100 100 100  100 100 100  100 100 100  100 100 100  100 100 100  100 100 100  100 100 100  100 100 100  100 100 100  100 100 100  100 100 100  100 100 100  100 100 100  100 100 100  100 100 100  100 100 100  100 100 100  100 100 100  100 100 100  100 100 100  100 100 100  100 100 100  100 100 100  100 100 100  100 100 100  100 100 100 142 142 0  100 100 100  100 100 100  100 100 100  100 100 100  100 100 100  100 100 100  100 100 100  100 100 100  100 100 100  250 250 250  250 250 250  250 250 250  100 100 100  100 100 100  100 100 100  100 100 100  100 100 100  100 100 100  100 100 100  100 100 100 142 142 0  100 100 100  100 100 100  100 100 100  100 100 100  100 100 100  100 100 100  100 100 100  100 100 100  100 100 100  100 100 100  100 100 100  100 100 100  100 100 100  100 100 100  100 100 100  100 100 100  100 100 100  100 100 100  100 100 100  100 100 100  100 100 100  100 100 100  100 100 100  100 100 100  100 100 100  100 100 100  100 100 100  100 100 100  100 100 100  100 100 100  100 100 100  100 100 100  100 100 100  100 100 100  100 100 100  100 100 100  100 100 100  100 100 100  100 100 100  100 100 100  100 100 100  100 100 100  100 100 100  100 100 100  100 100 100  100 100 100  100 100 100  100 100 100  100 100 100  100 100 100  100 100 100  100 100 100 142 142 0  100 100 100  100 100 100  100 100 100  100 100 100  100 100 100  100 100 100  100 100 100  100 100 100  250 250 250  250 250 250  250 250 250  100 100 100  100 100 100  100 100 100  100 100 100  100 100 100  100 100 100  100 100 100 142 142 0  100 100 100  100 100 100  100 100 100  100 100 100  100 100 100  100 100 100  100 100 100  100 100 100  100 100 100  100 100 100  100 100 100  100 100 100  100 100 100  100 100 100  100 100 100  100 100 100  100 100 100  100 100 100  100 100 100  100 100 100  100 100 100  100 100 100  100 100 100  100 100 100  100 100 100  100 100 100  100 100 100  100 100 100  100 100 100  100 100 100  100 100 100  100 100 100  100 100 100  100 100 100  100 100 100  100 100 100  100 100 100  100 100 100  100 100 100  100 100 100  100 100 100  100 100 100  100 100 100  100 100 100  100 100 100  100 100 100  100 100 100  100 100 100  100 100 100  100 100 100  100 100 100  100 100 100  100 100 100  100 100 100 142 142 0  100 100 100  100 100 100  100 100 100  100 100 100  100 100 100  100 100 100  100 100 100  250 250 250  250 250 250  250 250 250  100 100 100  100 100 100  100 100 100  100 100 100  100 100 100  100 100 100 142 142 0  100 100 100  100 100 100  100 100 100  100 100 100  100 100 100  100 100 100  100 100 100  100 100 100  100 100 100  100 100 100  100 100 100  100 100 100  100 100 100  100 100 100  100 100 100  100 100 100  100 100 100  100 100 100  100 100 100  100 100 100  100 100 100  100 100 100  100 100 100  100 100 100  100 100 100  100 100 100  100 100 100  100 100 100  100 100 100  100 100 100  100 100 100  100 100 100  100 100 100  100 100 100  100 100 100  100 100 100  100 100 100  100 100 100  100 100 100  100 100 100  100 100 100  100 100 100  100 100 100  100 100 100  100 100 100  100 100 100  100 100 100  100 100 100  100 100 100  100 100 100  100 100 100  100 100 100  100 100 100  100 100 100  100 100 100  100 100 100 142 142 0  100 100 100  100 100 100  100 100 100  100 100 100  100 100 100  100 100 100  250 250 250  250 250 250  250 250 250  100 100 100  100 100 100  100 100 100  100 100 100  100 100 100 142 142 0  100 100 100  100 100 100  100 100 100  100 100 100  100 100 100  100 100 100  100 100 100  100 100 100  100 100 100  100 100 100  100 100 100  100 100 100  100 100 100  100 100 100  100 100 100  100 100 100  100 100 100  100 100 100  100 100 100  100 100 100  100 100 100  100 100 100  100 100 100  100 100 100  100 100 100  100 100 100  100 100 100  100 100 100  100 100 100  100 100 100  100 100 100  100 100 100  100 100 100  100 100 100  100 100 100  100 100 100  100 100 100  100 100 100  100 100 100  100 100 100  100 100 100  100 100 100  100 100 100  100 100 100  100 100 100  100 100 100  100 100 100  100 100 100  100 100 100  100 100 100  100 100 100  100 100 100  100 100 100  100 100 100  100 100 100  100 100 100  100 100 100  100 100 100 142 142 0  100 100 100  100 100 100  100 100 100  100 100 100  100 100 100  250 250 250  250 250 250  250 250 250  250 250 250  100 100 100  100 100 100  100 100 100 141 141 0  100 100 100  100 100 100  100 100 100  100 100 100  100 100 100  100 100 100  100 100 100  100 100 100  100 100 100  100 100 100  100 100 100  100 100 100  100 100 100  100 100 100  100 100 100  100 100 100  100 100 100  100 100 100  100 100 100  100 100 100  100 100 100  100 100 100  100 100 100  100 100 100  100 100 100  100 100 100  100 100 100  100 100 100  100 100 100  100 100 100  100 100 100  100 100 100  100 100 100  100 100 100  100 100 100  100 100 100  100 100 100  100 100 100  100 100 100  100 100 100  100 100 100  100 100 100  100 100 100  100 100 100  100 100 100  100 100 100  100 100 100  100 100 100  100 100 100  100 100 100  100 100 100  100 100 100  100 100 100  100 100 100  100 100 100  100 100 100  100 100 100  100 100 100  100 100 100  100 100 100 141 141 0  100 100 100  100 100 100  100 100 100  250 250 250  250 250 250  250 250 250  250 250 250  250 250 250  100 100 100  100 100 100 142 142 0  100 100 100  100 100 100  100 100 100  100 100 100  100 100 100  100 100 100  100 100 100  100 100 100  100 100 100  100 100 100  100 100 100  100 100 100  100 100 100  100 100 100  100 100 100  100 100 100  100 100 100  100 100 100  100 100 100  100 100 100  100 100 100  100 100 100  100 100 100  100 100 100  100 100 100  100 100 100  100 100 100  100 100 100  100 100 100  100 100 100  100 100 100  100 100 100  100 100 100  100 100 100  100 100 100  100 100 100  100 100 100  100 100 100  100 100 100  100 100 100  100 100 100  100 100 100  100 100 100  100 100 100  100 100 100  100 100 100  100 100 100  100 100 100  100 100 100  100 100 100  100 100 100  100 100 100  100 100 100  100 100 100  100 100 100  100 100 100  100 100 100  100 100 100  100 100 100  100 100 100  100 100 100  100 100 100 142 142 0  100 100 100  100 100 100  250 250 250  250 250 250  250 250 250  250 250 250  250 250 250  100 100 100  0 250 0  100 100 100  100 100 100  100 100 100  100 100 100  100 100 100  100 100 100  100 100 100  100 100 100  100 100 100  100 100 100  100 100 100  100 100 100  100 100 100  100 100 100  100 100 100  100 100 100  100 100 100  100 100 100  100 100 100  100 100 100  100 100 100  100 100 100  100 100 100  100 100 100  100 100 100  100 100 100  100 100 100  100 100 100  100 100 100  100 100 100  100 100 100  100 100 100  100 100 100  100 100 100  100 100 100  100 100 100  100 100 100  100 100 100  100 100 100  100 100 100  100 100 100  100 100 100  100 100 100  100 100 100  100 100 100  100 100 100  100 100 100  100 100 100  100 100 100  100 100 100  100 100 100  100 100 100  100 100 100  100 100 100  100 100 100  100 100 100  100 100 100  100 100 100  100 100 100  100 100 100  100 100 100  100 100 100  100 100 100  100 100 100  0 250 0  100 100 100  250 250 250  250 250 250  250 250 250  250 250 250  250 250 250  100 100 100  100 100 100  100 100 100  100 100 100  100 100 100  100 100 100  100 100 100  100 100 100  100 100 100  100 100 100  100 100 100  100 100 100  100 100 100  100 100 100  100 100 100  100 100 100  100 100 100  100 100 100  100 100 100  100 100 100  100 100 100  100 100 100  100 100 100  100 100 100  100 100 100  100 100 100  100 100 100  100 100 100  100 100 100  100 100 100  100 100 100  100 100 100  100 100 100  100 100 100  100 100 100  100 100 100  100 100 100  100 100 100  100 100 100  100 100 100  100 100 100  100 100 100  100 100 100  100 100 100  100 100 100  100 100 100  100 100 100  100 100 100  100 100 100  100 100 100  100 100 100  100 100 100  100 100 100  100 100 100  100 100 100  100 100 100  100 100 100  100 100 100  100 100 100  100 100 100  100 100 100  100 100 100  100 100 100  100 100 100  100 100 100  100 100 100  100 100 100  100 100 100  250 250 250  250 250 250  250 250 250  250 250 250  250 250 250  250 250 250  250 250 250  250 250 250  250 250 250  100 100 100  100 100 100  100 100 100  100 100 100  100 100 100  100 100 100  100 100 100  100 100 100  100 100 100  100 100 100  100 100 100  100 100 100  100 100 100  100 100 100  100 100 100  100 100 100  100 100 100  100 100 100  100 100 100  100 100 100  100 100 100  100 100 100  100 100 100  100 100 100  100 100 100  100 100 100  100 100 100  100 100 100  100 100 100  100 100 100  100 100 100  100 100 100  100 100 100  100 100 100  100 100 100  100 100 100  100 100 100  100 100 100  100 100 100  100 100 100  100 100 100  100 100 100  100 100 100  100 100 100  100 100 100  100 100 100  100 100 100  100 100 100  100 100 100  100 100 100  100 100 100  100 100 100  100 100 100  100 100 100  100 100 100  100 100 100  100 100 100  100 100 100  100 100 100  100 100 100  250 250 250  250 250 250  250 250 250  250 250 250  250 250 250  250 250 250  250 250 250  250 250 250  250 250 250  250 250 250  250 250 250  250 250 250  250 250 250  250 250 250  250 250 250  250 250 250  250 250 250  250 250 250  250 250 250  250 250 250  250 250 250  250 250 250  250 250 250  250 250 250  250 250 250  250 250 250  250 250 250  250 250 250  250 250 250  250 250 250  250 250 250  250 250 250  250 250 250  250 250 250  250 250 250  250 250 250  250 250 250  250 250 250  250 250 250  250 250 250  250 250 250  250 250 250  250 250 250  250 250 250  250 250 250  250 250 250  250 250 250  250 250 250  250 250 250  250 250 250  250 250 250  250 250 250  250 250 250  250 250 250  250 250 250  250 250 250  250 250 250  250 250 250  250 250 250  250 250 250  250 250 250  250 250 250  250 250 250  250 250 250  250 250 250  250 250 250  250 250 250  250 250 250  250 250 250  250 250 250  250 250 250  250 250 250  250 250 250  250 250 250  250 250 250  250 250 250  250 250 250  250 250 250  250 250 250 