P3
66 42
255
 250 250 250  250 250 250  250 250 250  250 250 250  250 250 250  250 250 250  250 250 250  250 250 250  250 250 250  250 250 250  250 250 250  250 250 250  250 250 250  250 250 250  250 250 250  250 250 250  250 250 250  250 250 250  250 250 250  250 250 250  250 250 250  250 250 250  250 250 250  250 250 250  250 250 250  250 250 250  250 250 250  250 250 250  250 250 250  250 250 250  250 250 250  250 250 250  250 250 250  250 250 250  250 250 250  250 250 250  250 250 250  250 250 250  250 250 250  250 250 250  250 250 250  250 250 250  250 250 250  250 250 250  250 250 250  250 250 250  250 250 250  250 250 250  250 250 250  250 250 250  250 250 250  250 250 250  250 250 250  250 250 250  250 250 250  250 250 250  250 250 250  250 250 250  250 250 250  250 250 250  250 250 250  250 250 250  250 250 250  250 250 250  250 250 250  250 250 250  250 250 250  250 250 250  250 250 250  250 250 250  250 250 250  250 250 250  250 250 250  250 250 250  250 250 250  250 250 250  250 250 250  250 250 250  250 250 250  250 250 250  250 250 250  250 250 250  250 250 250  250 250 250  250 250 250  250 250 250  250 250 250  250 250 250  250 250 250  250 250 250  250 250 250  250 250 250  250 250 250  250 250 250  250 250 250  250 250 250  250 250 250  250 250 250  250 250 250  250 250 250  250 250 250  250 250 250  250 250 250  250 250 250  250 250 250  250 250 250  250 250 250  250 250 250  250 250 250  250 250 250  250 250 250  250 250 250  250 250 250  250 250 250  250 250 250  250 250 250  250 250 250  250 250 250  250 250 250  250 250 250  250 250 250  250 250 250  250 250 250  250 250 250  250 250 250  250 250 250  250 250 250  250 250 250  250 250 250  250 250 250  250 250 250  250 250 250  250 250 250  250 250 250  250 250 250  250 250 250  250 250 250  250 250 250  250 250 250  250 250 250  250 250 250  250 250 250  250 250 250  250 250 250  250 250 250  250 250 250  250 250 250  250 250 250  250 250 250  250 250 250  250 250 250  250 250 250  250 250 250  250 250 250  250 250 250  250 250 250  250 250 250  250 250 250  250 250 250  250 250 250  250 250 250  250 250 250  250 250 250  250 250 250  250 250 250  250 250 250  250 250 250  250 250 250  250 250 250  250 250 250  250 250 250  250 250 250  250 250 250  250 250 250  250 250 250  250 250 250  250 250 250  250 250 250  250 250 250  250 250 250  250 250 250  250 250 250  250 250 250  250 250 250  250 250 250  250 250 250  250 250 250  250 250 250  250 250 250  250 250 250  250 250 250  250 250 250  250 250 250  250 250 250  250 250 250  250 250 250  250 250 250  250 250 250  250 250 250  250 250 250  250 250 250  250 250 250  250 250 250  250 250 250  250 250 250  250 250 250  250 250 250  250 250 250  250 250 250  250 250 250  250 250 250  250 250 250  250 250 250  250 250 250  250 250 250  250 250 250  250 250 250  250 250 250  250 250 250  100 100 100  100 100 100  100 100 100  100 100 100  100 100 100  100 100 100  100 100 100  100 100 100  100 100 100  100 100 100  100 100 100  100 100 100  100 100 100  100 100 100  100 100 100  100 100 100  100 100 100  100 100 100  100 100 100  100 100 100  100 100 100  100 100 100  100 100 100  100 100 100  250 250 250  250 250 250  250 250 250  250 250 250  250 250 250  250 250 250  250 250 250  250 250 250  250 250 250  250 250 250  250 250 250  250 250 250  250 250 250  250 250 250  250 250 250  250 250 250  250 250 250  250 250 250  250 250 250  250 250 250  250 250 250  250 250 250  250 250 250  250 250 250  250 250 250  250 250 250  250 250 250  250 250 250  250 250 250  250 250 250  250 250 250  250 250 250  250 250 250  250 250 250  250 250 250  250 250 250  250 250 250  250 250 250  250 250 250  100 100 100  100 100 100  100 100 100  100 100 100  100 100 100  100 100 100  100 100 100  100 100 100  100 100 100  100 100 100  100 100 100  100 100 100  100 100 100  100 100 100  100 100 100  100 100 100  100 100 100  100 100 100  100 100 100  100 100 100  100 100 100  100 100 100  100 100 100  100 100 100  100 100 100  100 100 100  100 100 100  100 100 100  100 100 100  100 100 100  100 100 100  250 250 250  250 250 250  250 250 250  250 250 250  250 250 250  250 250 250  250 250 250  250 250 250  250 250 250  250 250 250  250 250 250  250 250 250  250 250 250  250 250 250  250 250 250  250 250 250  250 250 250  250 250 250  250 250 250  250 250 250  250 250 250  250 250 250  250 250 250  250 250 250  250 250 250  250 250 250  250 250 250  250 250 250  250 250 250  250 250 250  250 250 250  250 250 250  100 100 100  100 100 100  100 100 100  100 100 100  100 100 100  100 100 100  100 100 100  100 100 100  100 100 100  100 100 100  100 100 100  100 100 100  100 100 100  100 100 100  100 100 100  100 100 100  100 100 100  100 100 100  100 100 100  100 100 100  100 100 100  100 100 100  100 100 100  100 100 100  100 100 100  100 100 100  100 100 100  100 100 100  100 100 100  100 100 100  100 100 100  100 100 100  100 100 100  100 100 100  100 100 100  100 100 100  100 100 100  250 250 250  250 250 250  250 250 250  250 250 250  250 250 250  250 250 250  250 250 250  250 250 250  250 250 250  250 250 250  250 250 250  250 250 250  250 250 250  250 250 250  250 250 250  250 250 250  250 250 250  250 250 250  250 250 250  250 250 250  250 250 250  250 250 250  250 250 250  250 250 250  250 250 250  250 250 250  250 250 250  100 100 100  100 100 100  100 100 100  100 100 100  100 100 100  100 100 100  100 100 100  100 100 100  100 100 100  100 100 100  100 100 100  100 100 100  100 100 100  100 100 100  100 100 100  100 100 100  100 100 100  100 100 100  100 100 100  100 100 100  100 100 100  100 100 100  100 100 100  100 100 100  100 100 100  100 100 100  100 100 100  100 100 100  100 100 100  100 100 100  100 100 100  100 100 100  100 100 100  100 100 100  100 100 100  100 100 100  100 100 100  100 100 100  100 100 100  100 100 100  100 100 100  250 250 250  250 250 250  250 250 250  250 250 250  250 250 250  250 250 250  250 250 250  250 250 250  250 250 250  250 250 250  250 250 250  250 250 250  250 250 250  250 250 250  250 250 250  250 250 250  250 250 250  250 250 250  250 250 250  250 250 250  250 250 250  250 250 250  250 250 250  100 100 100  100 100 100  100 100 100  100 100 100  100 100 100  100 100 100  100 100 100  100 100 100  100 100 100  100 100 100  100 100 100  100 100 100  100 100 100  100 100 100  100 100 100  100 100 100  100 100 100  100 100 100  100 100 100  100 100 100  100 100 100  100 100 100  100 100 100  100 100 100  100 100 100  100 100 100  100 100 100  100 100 100  100 100 100  100 100 100  100 100 100  100 100 100  100 100 100  100 100 100  100 100 100  100 100 100  100 100 100  100 100 100  100 100 100  100 100 100  100 100 100  100 100 100  100 100 100  100 100 100  100 100 100  250 250 250  250 250 250  250 250 250  250 250 250  250 250 250  250 250 250  250 250 250  250 250 250  250 250 250  250 250 250  250 250 250  250 250 250  250 250 250  250 250 250  250 250 250  250 250 250  250 250 250  250 250 250  250 250 250  250 250 250  100 100 100  100 100 100  100 100 100  100 100 100  100 100 100  100 100 100  100 100 100  100 100 100  100 100 100  100 100 100  100 100 100  100 100 100  100 100 100  100 100 100  100 100 100  100 100 100  100 100 100  100 100 100  100 100 100  100 100 100  100 100 100  100 100 100  100 100 100  100 100 100  100 100 100  100 100 100  100 100 100  100 100 100  100 100 100  100 100 100  100 100 100  100 100 100  100 100 100  100 100 100  100 100 100  100 100 100  100 100 100  100 100 100  100 100 100  100 100 100  100 100 100  100 100 100  100 100 100  100 100 100  100 100 100  100 100 100  100 100 100  250 250 250  250 250 250  250 250 250  250 250 250  250 250 250  250 250 250  250 250 250  250 250 250  250 250 250  250 250 250  250 250 250  250 250 250  250 250 250  250 250 250  250 250 250  250 250 250  250 250 250  250 250 250  100 100 100  100 100 100  100 100 100  100 100 100  100 100 100  100 100 100  100 100 100  100 100 100  100 100 100  100 100 100  100 100 100  100 100 100  100 100 100  100 100 100  100 100 100  100 100 100  100 100 100  100 100 100  100 100 100  100 100 100  100 100 100  100 100 100  100 100 100  100 100 100  100 100 100  100 100 100  100 100 100  100 100 100  100 100 100  100 100 100  100 100 100  100 100 100  100 100 100  100 100 100  100 100 100  100 100 100  100 100 100  100 100 100  100 100 100  100 100 100  100 100 100  100 100 100  100 100 100  100 100 100  100 100 100  100 100 100  100 100 100  100 100 100  100 100 100  250 250 250  250 250 250  250 250 250  250 250 250  250 250 250  250 250 250  250 250 250  250 250 250  250 250 250  250 250 250  250 250 250  250 250 250  250 250 250  250 250 250  250 250 250  100 100 100  100 100 100  100 100 100  100 100 100  100 100 100  100 100 100  100 100 100  100 100 100  100 100 100  100 100 100  100 100 100  100 100 100  100 100 100  100 100 100  100 100 100  100 100 100  100 100 100  100 100 100  100 100 100  100 100 100  100 100 100  100 100 100  100 100 100  100 100 100  100 100 100  100 100 100  100 100 100  100 100 100  100 100 100  100 100 100  100 100 100  100 100 100  100 100 100  100 100 100  100 100 100  100 100 100  100 100 100  100 100 100  100 100 100  100 100 100  100 100 100  100 100 100  100 100 100  100 100 100  100 100 100  100 100 100  100 100 100  100 100 100  100 100 100  100 100 100  100 100 100  100 100 100  100 100 100  250 250 250  250 250 250  250 250 250  250 250 250  250 250 250  250 250 250  250 250 250  250 250 250  250 250 250  250 250 250  250 250 250  250 250 250  100 100 100  100 100 100  100 100 100  100 100 100  100 100 100  100 100 100  100 100 100  100 100 100  100 100 100  100 100 100  100 100 100  100 100 100  100 100 100  100 100 100  100 100 100  100 100 100  100 100 100  100 100 100  100 100 100  100 100 100  100 100 100  100 100 100  100 100 100  100 100 100  100 100 100  100 100 100  100 100 100  100 100 100  100 100 100  100 100 100  100 100 100  100 100 100  100 100 100  100 100 100  100 100 100  100 100 100  100 100 100  100 100 100  100 100 100  100 100 100  100 100 100  100 100 100  100 100 100  100 100 100  100 100 100  100 100 100  100 100 100  100 100 100  100 100 100  100 100 100  100 100 100  100 100 100  100 100 100  100 100 100  100 100 100  250 250 250  250 250 250  250 250 250  250 250 250  250 250 250  250 250 250  250 250 250  250 250 250  250 250 250  250 250 250  250 250 250  100 100 100  100 100 100  100 100 100  100 100 100  100 100 100  100 100 100  100 100 100  100 100 100  100 100 100  100 100 100  100 100 100  100 100 100  100 100 100  100 100 100  100 100 100  100 100 100  100 100 100  100 100 100  100 100 100  100 100 100  100 100 100  100 100 100  100 100 100  100 100 100  100 100 100  100 100 100  100 100 100  100 100 100  100 100 100  100 100 100  100 100 100  100 100 100  100 100 100  100 100 100  100 100 100  100 100 100  100 100 100  100 100 100  100 100 100  100 100 100  100 100 100  100 100 100  100 100 100  100 100 100  100 100 100  100 100 100  100 100 100  100 100 100  100 100 100  100 100 100  100 100 100  100 100 100  100 100 100  100 100 100  100 100 100  250 250 250  250 250 250  250 250 250  250 250 250  250 250 250  250 250 250  250 250 250  250 250 250  250 250 250  250 250 250  100 100 100  100 100 100  100 100 100  100 100 100  100 100 100  100 100 100  100 100 100  100 100 100  100 100 100  100 100 100  100 100 100  100 100 100  100 100 100  100 100 100  100 100 100  100 100 100  100 100 100  100 100 100  100 100 100  100 100 100  100 100 100  100 100 100  100 100 100  100 100 100  100 100 100  100 100 100  100 100 100  100 100 100  100 100 100  100 100 100  100 100 100  100 100 100  100 100 100  100 100 100  100 100 100  100 100 100  100 100 100  100 100 100  100 100 100  100 100 100  100 100 100  100 100 100  100 100 100  100 100 100  100 100 100  100 100 100  100 100 100  100 100 100  100 100 100  100 100 100  100 100 100  100 100 100  100 100 100  100 100 100  100 100 100  100 100 100  100 100 100  250 250 250  250 250 250  250 250 250  250 250 250  250 250 250  250 250 250  250 250 250  250 250 250  100 100 100  100 100 100  100 100 100  100 100 100  100 100 100  100 100 100  100 100 100  100 100 100  100 100 100  100 100 100  100 100 100  100 100 100  100 100 100  100 100 100  100 100 100  100 100 100  100 100 100  100 100 100  100 100 100  100 100 100  100 100 100  100 100 100  100 100 100  100 100 100  100 100 100  100 100 100  100 100 100  100 100 100  100 100 100  100 100 100  100 100 100  100 100 100  100 100 100  100 100 100  100 100 100  100 100 100  100 100 100  100 100 100  100 100 100  100 100 100  100 100 100  100 100 100  100 100 100  100 100 100  100 100 100  100 100 100  100 100 100  100 100 100  100 100 100  100 100 100  100 100 100  100 100 100  100 100 100  100 100 100  100 100 100  100 100 100  100 100 100  100 100 100  100 100 100  250 250 250  250 250 250  250 250 250  250 250 250  250 250 250  250 250 250  100 100 100  100 100 100  100 100 100  100 100 100  100 100 100  100 100 100  100 100 100  100 100 100  100 100 100  100 100 100  100 100 100  100 100 100  100 100 100  100 100 100  100 100 100  100 100 100  100 100 100  100 100 100  100 100 100  100 100 100  100 100 100  100 100 100  100 100 100  100 100 100  100 100 100  100 100 100  100 100 100  100 100 100  100 100 100  100 100 100  100 100 100  100 100 100  100 100 100  100 100 100  100 100 100  100 100 100  100 100 100  100 100 100  100 100 100  100 100 100  100 100 100  100 100 100  100 100 100  100 100 100  100 100 100  100 100 100  100 100 100  100 100 100  100 100 100  100 100 100  100 100 100  100 100 100  100 100 100  100 100 100  100 100 100  100 100 100  100 100 100  100 100 100  100 100 100  100 100 100  100 100 100  250 250 250  250 250 250  250 250 250  250 250 250  250 250 250  100 100 100  100 100 100  100 100 100  100 100 100  100 100 100  100 100 100  100 100 100  100 100 100  100 100 100  100 100 100  100 100 100  100 100 100  100 100 100  100 100 100  100 100 100  100 100 100  100 100 100  100 100 100  100 100 100  100 100 100  100 100 100  100 100 100  100 100 100  100 100 100  100 100 100  100 100 100  100 100 100  100 100 100  100 100 100  100 100 100  100 100 100  100 100 100  100 100 100  100 100 100  100 100 100  100 100 100  100 100 100  100 100 100  100 100 100  100 100 100  100 100 100  100 100 100  100 100 100  100 100 100  100 100 100  100 100 100  100 100 100  100 100 100  100 100 100  100 100 100  100 100 100  100 100 100  100 100 100  100 100 100  100 100 100  100 100 100  100 100 100  100 100 100  100 100 100  100 100 100  100 100 100  250 250 250  250 250 250  250 250 250  250 250 250  250 250 250  100 100 100  100 100 100  100 100 100  100 100 100  100 100 100  100 100 100  100 100 100  100 100 100  100 100 100  100 100 100  100 100 100  100 100 100  100 100 100  100 100 100  100 100 100  100 100 100  100 100 100  100 100 100  100 100 100  100 100 100  100 100 100  100 100 100  100 100 100  100 100 100  100 100 100  100 100 100  100 100 100  100 100 100  100 100 100  100 100 100  100 100 100  100 100 100  100 100 100  100 100 100  100 100 100  100 100 100  100 100 100  100 100 100  100 100 100  100 100 100  100 100 100  100 100 100  100 100 100  100 100 100  100 100 100  100 100 100  100 100 100  100 100 100  100 100 100  100 100 100  100 100 100  100 100 100  100 100 100  100 100 100  100 100 100  100 100 100  100 100 100  100 100 100  100 100 100  100 100 100  100 100 100  250 250 250  250 250 250  250 250 250  250 250 250  250 250 250  100 100 100  100 100 100  100 100 100  100 100 100  100 100 100  100 100 100  100 100 100  100 100 100  100 100 100  100 100 100  100 100 100  100 100 100  100 100 100  100 100 100  100 100 100  100 100 100  100 100 100  100 100 100  100 100 100  100 100 100  100 100 100  100 100 100  100 100 100  100 100 100  100 100 100  100 100 100  100 100 100  100 100 100  100 100 100  100 100 100  100 100 100  100 100 100  100 100 100  100 100 100  100 100 100  100 100 100  100 100 100  100 100 100  100 100 100  100 100 100  100 100 100  100 100 100  100 100 100  100 100 100  100 100 100  100 100 100  100 100 100  100 100 100  100 100 100  100 100 100  100 100 100  100 100 100  100 100 100  100 100 100  100 100 100  100 100 100  100 100 100  100 100 100  100 100 100  100 100 100  100 100 100  250 250 250  250 250 250  250 250 250  250 250 250  250 250 250  100 100 100  100 100 100  100 100 100  100 100 100  100 100 100  100 100 100  100 100 100  100 100 100  100 100 100  100 100 100  100 100 100  100 100 100  100 100 100  100 100 100  100 100 100  100 100 100  100 100 100  100 100 100  100 100 100  100 100 100  100 100 100  100 100 100  100 100 100  100 100 100  100 100 100  100 100 100  100 100 100  100 100 100  100 100 100  100 100 100  100 100 100  100 100 100  100 100 100  100 100 100  100 100 100  100 100 100  100 100 100  100 100 100  100 100 100  100 100 100  100 100 100  100 100 100  100 100 100  100 100 100  100 100 100  100 100 100  100 100 100  100 100 100  100 100 100  100 100 100  100 100 100  100 100 100  100 100 100  100 100 100  100 100 100  100 100 100  100 100 100  100 100 100  100 100 100  100 100 100  100 100 100  250 250 250  250 250 250  250 250 250  250 250 250  250 250 250  100 100 100  100 100 100  100 100 100  100 100 100  100 100 100  100 100 100  100 100 100  100 100 100  100 100 100  100 100 100  100 100 100  100 100 100  100 100 100  100 100 100  100 100 100  100 100 100  100 100 100  100 100 100  100 100 100  100 100 100  100 100 100  100 100 100  100 100 100  100 100 100  100 100 100  100 100 100  100 100 100  100 100 100  100 100 100  100 100 100  100 100 100  100 100 100  100 100 100  100 100 100  100 100 100  100 100 100  100 100 100  100 100 100  100 100 100  100 100 100  100 100 100  100 100 100  100 100 100  100 100 100  100 100 100  100 100 100  100 100 100  100 100 100  100 100 100  100 100 100  100 100 100  100 100 100  100 100 100  100 100 100  100 100 100  100 100 100  100 100 100  100 100 100  100 100 100  100 100 100  100 100 100  250 250 250  250 250 250  250 250 250  250 250 250  100 100 100  100 100 100  100 100 100  100 100 100  100 100 100  100 100 100  100 100 100  100 100 100  100 100 100  100 100 100  100 100 100  100 100 100  100 100 100  0 250 0 149 149 0 160 160 0 171 171 0 176 176 0 177 177 0 182 182 0 188 188 0 194 194 0 191 191 0 189 189 0 207 207 0 212 212 0 193 193 0 190 190 0 190 190 0 192 192 0 198 198 0 202 202 0 195 195 0 192 192 0 191 191 0 191 191 0 193 193 0 212 212 0 207 207 0 189 189 0 191 191 0 194 194 0 189 189 0 182 182 0 177 177 0 176 176 0 171 171 0 160 160 0 148 148 0  0 250 0  100 100 100  100 100 100  100 100 100  100 100 100  100 100 100  100 100 100  100 100 100  100 100 100  100 100 100  100 100 100  100 100 100  100 100 100  250 250 250  250 250 250  250 250 250  250 250 250  250 250 250  100 100 100  100 100 100  100 100 100  100 100 100  100 100 100  100 100 100  100 100 100  100 100 100  100 100 100  100 100 100  100 100 100  100 100 100  100 100 100  100 100 100  100 100 100  100 100 100  100 100 100  100 100 100  100 100 100  100 100 100  100 100 100  100 100 100  100 100 100  100 100 100  100 100 100  100 100 100  100 100 100  100 100 100  100 100 100  100 100 100  100 100 100  100 100 100  100 100 100  100 100 100  100 100 100  100 100 100  100 100 100  100 100 100  100 100 100  100 100 100  100 100 100  100 100 100  100 100 100  100 100 100  100 100 100  100 100 100  100 100 100  100 100 100  100 100 100  100 100 100  100 100 100  100 100 100  100 100 100  100 100 100  100 100 100  100 100 100  100 100 100  100 100 100  100 100 100  100 100 100  100 100 100  250 250 250  250 250 250  250 250 250  250 250 250  250 250 250  100 100 100  100 100 100  100 100 100  100 100 100  100 100 100  100 100 100  100 100 100  100 100 100  100 100 100  100 100 100  100 100 100  100 100 100  100 100 100  100 100 100  100 100 100  100 100 100  100 100 100  100 100 100  100 100 100  100 100 100  100 100 100  100 100 100  100 100 100  100 100 100  100 100 100  100 100 100  100 100 100  100 100 100  100 100 100  100 100 100  100 100 100  100 100 100  100 100 100  100 100 100  100 100 100  100 100 100  100 100 100  100 100 100  100 100 100  100 100 100  100 100 100  100 100 100  100 100 100  100 100 100  100 100 100  100 100 100  100 100 100  100 100 100  100 100 100  100 100 100  100 100 100  100 100 100  100 100 100  100 100 100  100 100 100  100 100 100  100 100 100  100 100 100  100 100 100  100 100 100  100 100 100  250 250 250  250 250 250  250 250 250  250 250 250  250 250 250  100 100 100  100 100 100  100 100 100  100 100 100  100 100 100  100 100 100  100 100 100  100 100 100  100 100 100  100 100 100  100 100 100  100 100 100  100 100 100  100 100 100  100 100 100  100 100 100  100 100 100  100 100 100  100 100 100  100 100 100  100 100 100  100 100 100  100 100 100  100 100 100  100 100 100  100 100 100  100 100 100  100 100 100  100 100 100  100 100 100  100 100 100  100 100 100  100 100 100  100 100 100  100 100 100  100 100 100  100 100 100  100 100 100  100 100 100  100 100 100  100 100 100  100 100 100  100 100 100  100 100 100  100 100 100  100 100 100  100 100 100  100 100 100  100 100 100  100 100 100  100 100 100  100 100 100  100 100 100  100 100 100  100 100 100  100 100 100  100 100 100  100 100 100  100 100 100  100 100 100  100 100 100  250 250 250  250 250 250  250 250 250  250 250 250  250 250 250  100 100 100  100 100 100  100 100 100  100 100 100  100 100 100  100 100 100  100 100 100  100 100 100  100 100 100  100 100 100  100 100 100  100 100 100  100 100 100  100 100 100  100 100 100  100 100 100  100 100 100  100 100 100  100 100 100  100 100 100  100 100 100  100 100 100  100 100 100  100 100 100  100 100 100  100 100 100  100 100 100  100 100 100  100 100 100  100 100 100  100 100 100  100 100 100  100 100 100  100 100 100  100 100 100  100 100 100  100 100 100  100 100 100  100 100 100  100 100 100  100 100 100  100 100 100  100 100 100  100 100 100  100 100 100  100 100 100  100 100 100  100 100 100  100 100 100  100 100 100  100 100 100  100 100 100  100 100 100  100 100 100  100 100 100  100 100 100  100 100 100  100 100 100  100 100 100  100 100 100  100 100 100  250 250 250  250 250 250  250 250 250  250 250 250  250 250 250  100 100 100  100 100 100  100 100 100  100 100 100  100 100 100  100 100 100  100 100 100  100 100 100  100 100 100  100 100 100  100 100 100  100 100 100  100 100 100  100 100 100  100 100 100  100 100 100  100 100 100  100 100 100  100 100 100  100 100 100  100 100 100  100 100 100  100 100 100  100 100 100  100 100 100  100 100 100  100 100 100  100 100 100  100 100 100  100 100 100  100 100 100  100 100 100  100 100 100  100 100 100  100 100 100  100 100 100  100 100 100  100 100 100  100 100 100  100 100 100  100 100 100  100 100 100  100 100 100  100 100 100  100 100 100  100 100 100  100 100 100  100 100 100  100 100 100  100 100 100  100 100 100  100 100 100  100 100 100  100 100 100  100 100 100  100 100 100  100 100 100  100 100 100  100 100 100  100 100 100  100 100 100  250 250 250  250 250 250  250 250 250  250 250 250  250 250 250  250 250 250  100 100 100  100 100 100  100 100 100  100 100 100  100 100 100  100 100 100  100 100 100  100 100 100  100 100 100  100 100 100  100 100 100  100 100 100  100 100 100  100 100 100  100 100 100  100 100 100  100 100 100  100 100 100  100 100 100  100 100 100  100 100 100  100 100 100  100 100 100  100 100 100  100 100 100  100 100 100  100 100 100  100 100 100  100 100 100  100 100 100  100 100 100  100 100 100  100 100 100  100 100 100  100 100 100  100 100 100  100 100 100  100 100 100  100 100 100  100 100 100  100 100 100  100 100 100  100 100 100  100 100 100  100 100 100  100 100 100  100 100 100  100 100 100  100 100 100  100 100 100  100 100 100  100 100 100  100 100 100  100 100 100  100 100 100  100 100 100  100 100 100  100 100 100  100 100 100  250 250 250  250 250 250  250 250 250  250 250 250  250 250 250  250 250 250  250 250 250  250 250 250  100 100 100  100 100 100  100 100 100  100 100 100  100 100 100  100 100 100  100 100 100  100 100 100  100 100 100  100 100 100  100 100 100  100 100 100  100 100 100  100 100 100  100 100 100  100 100 100  100 100 100  100 100 100  100 100 100  100 100 100  100 100 100  100 100 100  100 100 100  100 100 100  100 100 100  100 100 100  100 100 100  100 100 100  100 100 100  100 100 100  100 100 100  100 100 100  100 100 100  100 100 100  100 100 100  100 100 100  100 100 100  100 100 100  100 100 100  100 100 100  100 100 100  100 100 100  100 100 100  100 100 100  100 100 100  100 100 100  100 100 100  100 100 100  100 100 100  100 100 100  100 100 100  100 100 100  100 100 100  100 100 100  100 100 100  100 100 100  100 100 100  250 250 250  250 250 250  250 250 250  250 250 250  250 250 250  250 250 250  250 250 250  250 250 250  250 250 250  100 100 100  100 100 100  100 100 100  100 100 100  100 100 100  100 100 100  100 100 100  100 100 100  100 100 100  100 100 100  100 100 100  100 100 100  100 100 100  100 100 100  100 100 100  100 100 100  100 100 100  100 100 100  100 100 100  100 100 100  100 100 100  100 100 100  100 100 100  100 100 100  100 100 100  100 100 100  100 100 100  100 100 100  100 100 100  100 100 100  100 100 100  100 100 100  100 100 100  100 100 100  100 100 100  100 100 100  100 100 100  100 100 100  100 100 100  100 100 100  100 100 100  100 100 100  100 100 100  100 100 100  100 100 100  100 100 100  100 100 100  100 100 100  100 100 100  100 100 100  100 100 100  100 100 100  100 100 100  100 100 100  100 100 100  100 100 100  100 100 100  250 250 250  250 250 250  250 250 250  250 250 250  250 250 250  250 250 250  250 250 250  250 250 250  250 250 250  250 250 250  100 100 100  100 100 100  100 100 100  100 100 100  100 100 100  100 100 100  100 100 100  100 100 100  100 100 100  100 100 100  100 100 100  100 100 100  100 100 100  100 100 100  100 100 100  100 100 100  100 100 100  100 100 100  100 100 100  100 100 100  100 100 100  100 100 100  100 100 100  100 100 100  100 100 100  100 100 100  100 100 100  100 100 100  100 100 100  100 100 100  100 100 100  100 100 100  100 100 100  100 100 100  100 100 100  100 100 100  100 100 100  100 100 100  100 100 100  100 100 100  100 100 100  100 100 100  100 100 100  100 100 100  100 100 100  100 100 100  100 100 100  100 100 100  100 100 100  100 100 100  100 100 100  100 100 100  100 100 100  100 100 100  100 100 100  250 250 250  250 250 250  250 250 250  250 250 250  250 250 250  250 250 250  250 250 250  250 250 250  250 250 250  250 250 250  250 250 250  250 250 250  100 100 100  100 100 100  100 100 100  100 100 100  100 100 100  100 100 100  100 100 100  100 100 100  100 100 100  100 100 100  100 100 100  100 100 100  100 100 100  100 100 100  100 100 100  100 100 100  100 100 100  100 100 100  100 100 100  100 100 100  100 100 100  100 100 100  100 100 100  100 100 100  100 100 100  100 100 100  100 100 100  100 100 100  100 100 100  100 100 100  100 100 100  100 100 100  100 100 100  100 100 100  100 100 100  100 100 100  100 100 100  100 100 100  100 100 100  100 100 100  100 100 100  100 100 100  100 100 100  100 100 100  100 100 100  100 100 100  100 100 100  100 100 100  100 100 100  100 100 100  100 100 100  100 100 100  100 100 100  250 250 250  250 250 250  250 250 250  250 250 250  250 250 250  250 250 250  250 250 250  250 250 250  250 250 250  250 250 250  250 250 250  250 250 250  250 250 250  250 250 250  100 100 100  100 100 100  100 100 100  100 100 100  100 100 100  100 100 100  100 100 100  100 100 100  100 100 100  100 100 100  100 100 100  100 100 100  100 100 100  100 100 100  100 100 100  100 100 100  100 100 100  100 100 100  100 100 100  100 100 100  100 100 100  100 100 100  100 100 100  100 100 100  100 100 100  100 100 100  100 100 100  100 100 100  100 100 100  100 100 100  100 100 100  100 100 100  100 100 100  100 100 100  100 100 100  100 100 100  100 100 100  100 100 100  100 100 100  100 100 100  100 100 100  100 100 100  100 100 100  100 100 100  100 100 100  100 100 100  100 100 100  100 100 100  100 100 100  100 100 100  100 100 100  250 250 250  250 250 250  250 250 250  250 250 250  250 250 250  250 250 250  250 250 250  250 250 250  250 250 250  250 250 250  250 250 250  250 250 250  250 250 250  250 250 250  250 250 250  250 250 250  250 250 250  100 100 100  100 100 100  100 100 100  100 100 100  100 100 100  100 100 100  100 100 100  100 100 100  100 100 100  100 100 100  100 100 100  100 100 100  100 100 100  100 100 100  100 100 100  100 100 100  100 100 100  100 100 100  100 100 100  100 100 100  100 100 100  100 100 100  100 100 100  100 100 100  100 100 100  100 100 100  100 100 100  100 100 100  100 100 100  100 100 100  100 100 100  100 100 100  100 100 100  100 100 100  100 100 100  100 100 100  100 100 100  100 100 100  100 100 100  100 100 100  100 100 100  100 100 100  100 100 100  100 100 100  100 100 100  100 100 100  100 100 100  250 250 250  250 250 250  250 250 250  250 250 250  250 250 250  250 250 250  250 250 250  250 250 250  250 250 250  250 250 250  250 250 250  250 250 250  250 250 250  250 250 250  250 250 250  250 250 250  250 250 250  250 250 250  250 250 250  250 250 250  100 100 100  100 100 100  100 100 100  100 100 100  100 100 100  100 100 100  100 100 100  100 100 100  100 100 100  100 100 100  100 100 100  100 100 100  100 100 100  100 100 100  100 100 100  100 100 100  100 100 100  100 100 100  100 100 100  100 100 100  100 100 100  100 100 100  100 100 100  100 100 100  100 100 100  100 100 100  100 100 100  100 100 100  100 100 100  100 100 100  100 100 100  100 100 100  100 100 100  100 100 100  100 100 100  100 100 100  100 100 100  100 100 100  100 100 100  100 100 100  100 100 100  100 100 100  100 100 100  100 100 100  100 100 100  250 250 250  250 250 250  250 250 250  250 250 250  250 250 250  250 250 250  250 250 250  250 250 250  250 250 250  250 250 250  250 250 250  250 250 250  250 250 250  250 250 250  250 250 250  250 250 250  250 250 250  250 250 250  250 250 250  250 250 250  250 250 250  250 250 250  250 250 250  100 100 100  100 100 100  100 100 100  100 100 100  100 100 100  100 100 100  100 100 100  100 100 100  100 100 100  100 100 100  100 100 100  100 100 100  100 100 100  100 100 100  100 100 100  100 100 100  100 100 100  100 100 100  100 100 100  100 100 100  100 100 100  100 100 100  100 100 100  100 100 100  100 100 100  100 100 100  100 100 100  100 100 100  100 100 100  100 100 100  100 100 100  100 100 100  100 100 100  100 100 100  100 100 100  100 100 100  100 100 100  100 100 100  100 100 100  100 100 100  100 100 100  250 250 250  250 250 250  250 250 250  250 250 250  250 250 250  250 250 250  250 250 250  250 250 250  250 250 250  250 250 250  250 250 250  250 250 250  250 250 250  250 250 250  250 250 250  250 250 250  250 250 250  250 250 250  250 250 250  250 250 250  250 250 250  250 250 250  250 250 250  250 250 250  250 250 250  250 250 250  250 250 250  100 100 100  100 100 100  100 100 100  100 100 100  100 100 100  100 100 100  100 100 100  100 100 100  100 100 100  100 100 100  100 100 100  100 100 100  100 100 100  100 100 100  100 100 100  100 100 100  100 100 100  100 100 100  100 100 100  100 100 100  100 100 100  100 100 100  100 100 100  100 100 100  100 100 100  100 100 100  100 100 100  100 100 100  100 100 100  100 100 100  100 100 100  100 100 100  100 100 100  100 100 100  100 100 100  100 100 100  100 100 100  250 250 250  250 250 250  250 250 250  250 250 250  250 250 250  250 250 250  250 250 250  250 250 250  250 250 250  250 250 250  250 250 250  250 250 250  250 250 250  250 250 250  250 250 250  250 250 250  250 250 250  250 250 250  250 250 250  250 250 250  250 250 250  250 250 250  250 250 250  250 250 250  250 250 250  250 250 250  250 250 250  250 250 250  250 250 250  250 250 250  250 250 250  100 100 100  100 100 100  100 100 100  100 100 100  100 100 100  100 100 100  100 100 100  100 100 100  100 100 100  100 100 100  100 100 100  100 100 100  100 100 100  100 100 100  100 100 100  100 100 100  100 100 100  100 100 100  100 100 100  100 100 100  100 100 100  100 100 100  100 100 100  100 100 100  100 100 100  100 100 100  100 100 100  100 100 100  100 100 100  100 100 100  100 100 100  100 100 100  100 100 100  250 250 250  250 250 250  250 250 250  250 250 250  250 250 250  250 250 250  250 250 250  250 250 250  250 250 250  250 250 250  250 250 250  250 250 250  250 250 250  250 250 250  250 250 250  250 250 250  250 250 250  250 250 250  250 250 250  250 250 250  250 250 250  250 250 250  250 250 250  250 250 250  250 250 250  250 250 250  250 250 250  250 250 250  250 250 250  250 250 250  250 250 250  250 250 250  250 250 250  250 250 250  250 250 250  250 250 250  250 250 250  100 100 100  100 100 100  100 100 100  100 100 100  100 100 100  100 100 100  100 100 100  100 100 100  100 100 100  100 100 100  100 100 100  100 100 100  100 100 100  100 100 100  100 100 100  100 100 100  100 100 100  100 100 100  100 100 100  100 100 100  100 100 100  100 100 100  100 100 100  100 100 100  100 100 100  250 250 250  250 250 250  250 250 250  250 250 250  250 250 250  250 250 250  250 250 250  250 250 250  250 250 250  250 250 250  250 250 250  250 250 250  250 250 250  250 250 250  250 250 250  250 250 250  250 250 250  250 250 250  250 250 250  250 250 250  250 250 250  250 250 250  250 250 250  250 250 250  250 250 250  250 250 250  250 250 250  250 250 250  250 250 250  250 250 250  250 250 250  250 250 250  250 250 250  250 250 250  250 250 250  250 250 250  250 250 250  250 250 250  250 250 250  250 250 250  250 250 250  250 250 250  250 250 250  250 250 250  250 250 250  100 100 100  100 100 100  100 100 100  100 100 100  100 100 100  100 100 100  100 100 100  100 100 100  100 100 100  100 100 100  100 100 100  100 100 100  100 100 100  100 100 100  100 100 100  100 100 100  100 100 100  250 250 250  250 250 250  250 250 250  250 250 250  250 250 250  250 250 250  250 250 250  250 250 250  250 250 250  250 250 250  250 250 250  250 250 250  250 250 250  250 250 250  250 250 250  250 250 250  250 250 250  250 250 250  250 250 250  250 250 250  250 250 250  250 250 250  250 250 250  250 250 250  250 250 250  250 250 250  250 250 250  250 250 250  250 250 250  250 250 250  250 250 250  250 250 250  250 250 250  250 250 250  250 250 250  250 250 250  250 250 250  250 250 250  250 250 250  250 250 250  250 250 250  250 250 250  250 250 250  250 250 250  250 250 250  250 250 250  250 250 250  250 250 250  250 250 250  250 250 250  250 250 250  250 250 250  250 250 250  250 250 250  250 250 250  250 250 250  250 250 250  250 250 250  250 250 250  250 250 250  250 250 250  250 250 250  250 250 250  250 250 250  250 250 250  250 250 250  250 250 250  250 250 250  250 250 250  250 250 250  250 250 250  250 250 250  250 250 250  250 250 250  250 250 250  250 250 250  250 250 250  250 250 250  250 250 250  250 250 250  250 250 250  250 250 250  250 250 250  250 250 250  250 250 250  250 250 250  250 250 250  250 250 250  250 250 250  250 250 250  250 250 250  250 250 250  250 250 250  250 250 250  250 250 250  250 250 250  250 250 250  250 250 250  250 250 250  250 250 250  250 250 250  250 250 250  250 250 250  250 250 250  250 250 250  250 250 250  250 250 250  250 250 250  250 250 250  250 250 250  250 250 250  250 250 250  250 250 250  250 250 250  250 250 250  250 250 250  250 250 250  250 250 250  250 250 250  250 250 250  250 250 250  250 250 250  250 250 250  250 250 250  250 250 250  250 250 250  250 250 250  250 250 250  250 250 250  250 250 250  250 250 250  250 250 250  250 250 250  250 250 250  250 250 250  250 250 250  250 250 250  250 250 250  250 250 250  250 250 250  250 250 250  250 250 250  250 250 250  250 250 250  250 250 250  250 250 250  250 250 250  250 250 250  250 250 250  250 250 250  250 250 250  250 250 250  250 250 250  250 250 250  250 250 250  250 250 250 